<svg width="930" height="300" viewBox="0 0 930 300" fill="none" xmlns="http://www.w3.org/2000/svg">
<path d="M260 0C282.091 0 300 17.9086 300 40V260C300 282.091 282.091 300 260 300H40C17.9086 300 1.1276e-06 282.091 0 260V40C0 17.9086 17.9086 1.12746e-06 40 0H260ZM102 213.091H132.234V146.436C132.238 146.441 132.241 146.447 132.244 146.453H132.234L132.372 146.691C144.221 168.78 158.256 190.542 170.06 212.638H203.043L177.212 165.695C177.306 165.654 177.401 165.613 177.494 165.571C184.457 162.395 189.832 157.793 193.619 151.767C197.406 145.699 199.3 138.329 199.3 129.656C199.3 121.105 197.447 113.714 193.741 107.484C190.036 101.214 184.763 96.4083 177.922 93.0693C171.122 89.6896 163.038 88 153.673 88H102V213.091ZM147.138 112.371C151.658 112.371 155.465 113.022 158.56 114.325C161.654 115.587 163.996 117.501 165.584 120.066C167.172 122.591 167.966 125.788 167.966 129.656C167.966 133.525 167.172 136.701 165.584 139.185C163.996 141.628 161.654 143.46 158.56 144.682C155.506 145.863 151.698 146.453 147.138 146.453H145.939L132.234 146.007V112.371H147.138Z" fill="url(#paint0_linear_121_6439)"/>
<path d="M388.976 202V98.7273H429.72C437.519 98.7273 444.176 100.122 449.689 102.913C455.236 105.669 459.455 109.586 462.346 114.662C465.271 119.705 466.733 125.638 466.733 132.462C466.733 139.32 465.254 145.22 462.295 150.162C459.337 155.07 455.051 158.835 449.437 161.457C443.856 164.08 437.099 165.391 429.165 165.391H401.885V147.842H425.636C429.804 147.842 433.267 147.271 436.023 146.128C438.78 144.985 440.831 143.27 442.175 140.984C443.554 138.698 444.243 135.858 444.243 132.462C444.243 129.033 443.554 126.142 442.175 123.789C440.831 121.436 438.763 119.654 435.973 118.444C433.216 117.2 429.737 116.578 425.535 116.578H410.81V202H388.976ZM444.747 155.003L470.414 202H446.31L421.198 155.003H444.747ZM515.81 203.513C507.843 203.513 500.985 201.899 495.236 198.672C489.521 195.411 485.117 190.805 482.025 184.855C478.932 178.871 477.385 171.795 477.385 163.626C477.385 155.658 478.932 148.666 482.025 142.648C485.117 136.631 489.471 131.941 495.085 128.58C500.733 125.218 507.355 123.537 514.953 123.537C520.063 123.537 524.82 124.361 529.224 126.008C533.661 127.621 537.527 130.059 540.822 133.32C544.15 136.58 546.738 140.682 548.587 145.624C550.436 150.532 551.361 156.28 551.361 162.869V168.769H485.958V155.457H531.14C531.14 152.364 530.467 149.624 529.123 147.237C527.778 144.85 525.912 142.985 523.525 141.64C521.172 140.262 518.432 139.572 515.306 139.572C512.045 139.572 509.154 140.329 506.633 141.842C504.145 143.321 502.195 145.321 500.783 147.842C499.371 150.33 498.648 153.103 498.615 156.163V168.82C498.615 172.652 499.321 175.963 500.733 178.754C502.178 181.544 504.212 183.695 506.834 185.208C509.456 186.721 512.566 187.477 516.163 187.477C518.55 187.477 520.735 187.141 522.719 186.469C524.702 185.796 526.4 184.788 527.812 183.443C529.224 182.098 530.299 180.451 531.039 178.501L550.907 179.812C549.898 184.586 547.831 188.755 544.704 192.318C541.612 195.848 537.611 198.605 532.703 200.588C527.828 202.538 522.198 203.513 515.81 203.513ZM600.375 203.513C592.441 203.513 585.617 201.832 579.902 198.47C574.22 195.075 569.85 190.368 566.791 184.351C563.765 178.333 562.253 171.408 562.253 163.575C562.253 155.642 563.782 148.683 566.841 142.699C569.934 136.681 574.321 131.992 580.003 128.63C585.684 125.235 592.441 123.537 600.274 123.537C607.031 123.537 612.948 124.764 618.024 127.218C623.1 129.672 627.117 133.118 630.076 137.555C633.034 141.993 634.665 147.204 634.967 153.188H614.696C614.124 149.321 612.612 146.212 610.157 143.859C607.737 141.472 604.56 140.278 600.627 140.278C597.299 140.278 594.391 141.186 591.903 143.001C589.449 144.783 587.533 147.388 586.155 150.817C584.776 154.246 584.087 158.398 584.087 163.273C584.087 168.214 584.76 172.417 586.104 175.879C587.483 179.342 589.416 181.981 591.903 183.796C594.391 185.612 597.299 186.519 600.627 186.519C603.081 186.519 605.283 186.015 607.233 185.006C609.216 183.998 610.847 182.536 612.124 180.619C613.435 178.67 614.292 176.333 614.696 173.61H634.967C634.631 179.527 633.017 184.737 630.126 189.242C627.269 193.713 623.319 197.21 618.276 199.731C613.233 202.252 607.266 203.513 600.375 203.513ZM670.202 98.7273V202H648.721V98.7273H670.202ZM709.497 203.462C704.555 203.462 700.151 202.605 696.285 200.891C692.419 199.143 689.36 196.571 687.108 193.175C684.889 189.746 683.78 185.477 683.78 180.367C683.78 176.064 684.57 172.45 686.15 169.526C687.73 166.601 689.881 164.248 692.604 162.466C695.327 160.684 698.42 159.339 701.883 158.432C705.379 157.524 709.043 156.885 712.876 156.516C717.38 156.045 721.011 155.608 723.768 155.205C726.524 154.768 728.524 154.129 729.768 153.288C731.012 152.448 731.634 151.204 731.634 149.557V149.254C731.634 146.061 730.626 143.59 728.608 141.842C726.625 140.094 723.801 139.219 720.137 139.219C716.271 139.219 713.195 140.077 710.909 141.791C708.623 143.472 707.11 145.59 706.371 148.145L686.503 146.531C687.511 141.825 689.495 137.757 692.453 134.328C695.411 130.866 699.227 128.21 703.9 126.361C708.606 124.478 714.052 123.537 720.238 123.537C724.541 123.537 728.659 124.041 732.592 125.05C736.559 126.058 740.072 127.621 743.131 129.739C746.224 131.857 748.661 134.58 750.443 137.908C752.225 141.203 753.116 145.153 753.116 149.759V202H732.743V191.259H732.138C730.894 193.68 729.23 195.814 727.146 197.663C725.062 199.479 722.557 200.907 719.633 201.95C716.708 202.958 713.329 203.462 709.497 203.462ZM715.649 188.637C718.809 188.637 721.599 188.015 724.02 186.771C726.44 185.494 728.34 183.779 729.718 181.628C731.096 179.476 731.785 177.039 731.785 174.316V166.097C731.113 166.534 730.189 166.937 729.012 167.307C727.869 167.643 726.575 167.962 725.129 168.265C723.684 168.534 722.238 168.786 720.792 169.021C719.347 169.223 718.036 169.408 716.859 169.576C714.338 169.946 712.136 170.534 710.253 171.341C708.371 172.148 706.908 173.24 705.866 174.619C704.824 175.963 704.303 177.644 704.303 179.661C704.303 182.586 705.362 184.821 707.48 186.368C709.631 187.881 712.354 188.637 715.649 188.637ZM769.781 202V124.545H791.263V202H769.781ZM780.573 114.561C777.379 114.561 774.639 113.502 772.353 111.384C770.101 109.233 768.975 106.661 768.975 103.669C768.975 100.711 770.101 98.1726 772.353 96.0547C774.639 93.9032 777.379 92.8274 780.573 92.8274C783.766 92.8274 786.489 93.9032 788.742 96.0547C791.028 98.1726 792.171 100.711 792.171 103.669C792.171 106.661 791.028 109.233 788.742 111.384C786.489 113.502 783.766 114.561 780.573 114.561ZM808.471 202V124.545H828.944V138.211H829.852C831.465 133.673 834.155 130.092 837.92 127.47C841.685 124.848 846.19 123.537 851.434 123.537C856.746 123.537 861.267 124.865 864.999 127.521C868.73 130.143 871.218 133.706 872.462 138.211H873.268C874.848 133.773 877.706 130.227 881.841 127.571C886.009 124.882 890.934 123.537 896.616 123.537C903.844 123.537 909.71 125.84 914.214 130.445C918.753 135.017 921.022 141.505 921.022 149.91V202H899.591V154.146C899.591 149.843 898.448 146.615 896.162 144.464C893.876 142.312 891.018 141.237 887.589 141.237C883.69 141.237 880.647 142.48 878.462 144.968C876.277 147.422 875.185 150.666 875.185 154.7V202H854.359V153.692C854.359 149.893 853.266 146.867 851.081 144.615C848.929 142.363 846.089 141.237 842.559 141.237C840.172 141.237 838.021 141.842 836.104 143.052C834.222 144.228 832.726 145.893 831.616 148.044C830.507 150.162 829.952 152.65 829.952 155.507V202H808.471Z" fill="url(#paint1_linear_121_6439)"/>
<defs>
<linearGradient id="paint0_linear_121_6439" x1="56.25" y1="261.111" x2="149.367" y2="10.3935" gradientUnits="userSpaceOnUse">
<stop offset="0.163462" stop-color="#4F80FF"/>
<stop offset="1" stop-color="#6A21B2"/>
</linearGradient>
<linearGradient id="paint1_linear_121_6439" x1="483.125" y1="213.704" x2="501.871" y2="52.3082" gradientUnits="userSpaceOnUse">
<stop offset="0.163462" stop-color="#4F80FF"/>
<stop offset="1" stop-color="#6A21B2"/>
</linearGradient>
</defs>
</svg>
