<svg width="39" height="39" viewBox="0 0 39 39" fill="none" xmlns="http://www.w3.org/2000/svg">
<path d="M39 19.5C39 30.2695 30.2695 39 19.5 39C8.73045 39 0 30.2695 0 19.5C0 8.73045 8.73045 0 19.5 0C30.2695 0 39 8.73045 39 19.5Z" fill="white"/>
<path d="M31.6876 19.7926C31.6876 18.9367 31.6125 18.1242 31.4839 17.3334H19.3673V22.2192H26.3048C25.9939 23.8226 25.0825 25.1767 23.7314 26.0976V29.3476H27.8703C30.2937 27.0834 31.6876 23.7467 31.6876 19.7926Z" fill="#4285F4"/>
<path d="M19.3673 32.5C22.8414 32.5 25.7473 31.3301 27.8703 29.3476L23.7314 26.0976C22.5734 26.8776 21.1043 27.3542 19.3673 27.3542C16.0111 27.3542 13.1696 25.0683 12.1509 21.9808H7.88332V25.3283C9.99568 29.575 14.3384 32.5 19.3673 32.5Z" fill="#34A853"/>
<path d="M12.1509 21.9808C11.8829 21.2008 11.7434 20.3666 11.7434 19.4999C11.7434 18.6333 11.8935 17.7991 12.1509 17.0191V13.6716H7.88328C7.00402 15.4266 6.50006 17.3983 6.50006 19.4999C6.50006 21.6016 7.00406 23.5733 7.88332 25.3283L12.1509 21.9808Z" fill="#FBBC05"/>
<path d="M19.3673 11.6459C21.2652 11.6459 22.9594 12.3067 24.2997 13.5959L27.9668 9.89089C25.7472 7.78922 22.8414 6.50006 19.3673 6.50006C14.3384 6.50006 9.99564 9.42492 7.88328 13.6716L12.1509 17.0191C13.1695 13.9316 16.0111 11.6459 19.3673 11.6459Z" fill="#EA4335"/>
</svg>
